Coordinates
version=1
nRows=35
nColumns=18
inDegrees=yes

Units are S.I. units (second, meters, Newtons, ...)
Angles are in degrees.

endheader
time	ground_thorax_rot_x	ground_thorax_rot_y	ground_thorax_rot_z	ground_thorax_tx	ground_thorax_ty	ground_thorax_tz	clav_prot	clav_elev	scapula_abduction	scapula_elevation	scapula_upward_rot	scapula_winging	plane_elv	shoulder_elv	axial_rot	elbow_flexion	pro_sup
      1.39000000	      1.56748798	     -5.48971439	     -9.08938974	     -0.00423131	      0.00403036	     -0.00078352	    -29.81786591	     -2.59540024	    -25.11365928	     -3.27996368	     13.27029258	      4.24250600	    -12.30977647	     14.03057885	     25.60630932	      0.00000000	     34.32000000
      1.40000000	      0.73057451	     -4.98603969	     -8.77712228	     -0.00423131	      0.00403036	     -0.00078352	    -30.59332824	     -2.12792665	    -26.18088803	     -3.14161373	     13.87700392	      3.78421190	    -11.35938525	     11.89849248	     25.58043730	      0.00000000	     34.32000000
      1.41000000	      0.65807774	     -3.82824188	     -8.67404941	     -0.00423131	      0.00403036	     -0.00078352	    -32.21666798	     -1.18009318	    -28.46178591	     -2.84123455	     15.00286851	      2.81041915	     -7.62705456	      9.72213438	     25.94688511	      0.00000000	     34.32000000
      1.42000000	      0.42724050	     -3.38485663	     -8.53235459	     -0.00423131	      0.00403036	     -0.00078352	    -33.14592583	     -0.11063843	    -30.18954822	     -2.16416163	     15.21328456	      2.18843167	      1.54161818	      8.53136244	     25.45901102	      0.00000000	     34.32000000
      1.43000000	     -0.81944765	     -3.17830469	     -8.09014840	     -0.00423131	      0.00403036	     -0.00078352	    -33.47597092	      0.62559367	    -31.00146113	     -1.62785038	     15.17290752	      1.90908115	      2.24911124	      7.03262699	     25.24503769	      0.00000000	     34.32000000
      1.44000000	     -0.01029616	     -2.78134483	     -8.52553068	     -0.00423131	      0.00403036	     -0.00078352	    -34.57476069	      2.23512782	    -32.66297729	     -0.80984691	     16.30095123	      0.84986532	     17.79329384	      7.55281014	      9.65173430	      0.00000000	     34.32000000
      1.45000000	     -0.35638741	     -2.29988267	     -8.33337306	     -0.00423131	      0.00403036	     -0.00078352	    -35.04538645	      2.79048629	    -33.41207242	     -0.52556905	     16.64290033	      0.46197097	     18.85728113	      7.09067805	      8.78194501	      0.00000000	     34.32000000
      1.46000000	     -0.43564176	     -1.96006365	     -8.27944184	     -0.00423131	      0.00403036	     -0.00078352	    -35.48092820	      3.18878023	    -34.01567888	     -0.36681341	     17.02668565	      0.10257248	     19.98064973	      6.95100036	      7.80971308	      0.00000000	     34.32000000
      1.47000000	     -0.51678004	     -1.80842917	     -8.27628400	     -0.00423131	      0.00403036	     -0.00078352	    -35.83752500	      3.52815278	    -34.46901775	     -0.24575320	     17.41218099	     -0.21832933	     21.18747388	      6.77604795	      6.70650092	      0.00000000	     34.32000000
      1.48000000	     -0.50344914	     -1.79688720	     -8.29885184	     -0.00423131	      0.00403036	     -0.00078352	    -36.16805333	      3.76906060	    -34.84772251	     -0.19173477	     17.78292490	     -0.50921666	     22.74177641	      6.61207914	      5.48791347	      0.00000000	     34.32000000
      1.49000000	     -0.65102909	     -1.92298840	     -8.19948526	     -0.00423131	      0.00403036	     -0.00078352	    -36.25158289	      3.77085775	    -34.94333253	     -0.21124642	     17.83608029	     -0.56042362	     22.76167239	      6.57631287	      5.46358272	      0.00000000	     34.32000000
      1.50000000	     -0.48463250	     -1.54821338	     -8.29455922	     -0.00423131	      0.00403036	     -0.00078352	    -36.91427066	      3.97048176	    -35.66699643	     -0.27342728	     18.42981598	     -1.05843079	     24.92363922	      6.05978519	      4.16990636	      0.00000000	     34.32000000
      1.51000000	     -0.42294840	     -1.45696705	     -8.39581630	     -0.00423131	      0.00403036	     -0.00078352	    -37.22293028	      4.00199534	    -35.90336135	     -0.37472527	     18.81690175	     -1.31453415	     25.69410256	      5.86472479	      3.38201862	      0.00000000	     34.32000000
      1.52000000	     -0.21600168	     -1.64663596	     -8.49558032	     -0.00423131	      0.00403036	     -0.00078352	    -37.36143157	      4.12663465	    -35.80347733	     -0.43564800	     19.38239172	     -1.56413490	     26.33215701	      5.68329682	      2.71162532	      0.00000000	     34.32000000
      1.53000000	     -0.06071516	     -2.04350085	     -8.51180765	     -0.00423131	      0.00403036	     -0.00078352	    -37.28644642	      4.32410790	    -35.62773647	     -0.33987537	     19.60877026	     -1.63309452	     27.31900995	      5.84346296	      2.19151187	      0.00000000	     34.32000000
      1.54000000	     -0.18285863	     -2.23025750	     -8.60505108	     -0.00423131	      0.00403036	     -0.00078352	    -37.30375869	      4.34832711	    -35.64947422	     -0.32928929	     19.63147674	     -1.65248591	     27.30104020	      5.76097806	      2.17641885	      0.00000000	     34.32000000
      1.55000000	     -0.35340173	     -2.31303975	     -8.59395909	     -0.00423131	      0.00403036	     -0.00078352	    -37.34686377	      4.60526933	    -35.57298757	     -0.24040533	     20.02063530	     -1.83283918	     27.56294577	      5.18167804	      1.80879234	      0.00000000	     34.32000000
      1.56000000	     -0.33142087	     -2.18991583	     -8.64551935	     -0.00423131	      0.00403036	     -0.00078352	    -37.45587522	      4.86932795	    -35.58033739	     -0.15888233	     20.43803769	     -2.05278130	     27.63935015	      4.92630233	      1.43929817	      0.00000000	     34.32000000
      1.57000000	     -0.30329944	     -2.07404686	     -8.68590119	     -0.00423131	      0.00403036	     -0.00078352	    -37.54171281	      5.16245542	    -35.51987510	     -0.07003871	     20.92354239	     -2.28610791	     27.60588989	      4.66676865	      1.11415726	      0.00000000	     34.32000000
      1.58000000	     -0.41884038	     -2.01928261	     -8.65592016	     -0.00423131	      0.00403036	     -0.00078352	    -37.61535166	      5.50486342	    -35.51399842	      0.07490503	     21.33062973	     -2.49937394	     27.82189024	      4.32998354	      0.87810949	      0.00000000	     34.32000000
      1.59000000	     -0.77523560	     -2.05297463	     -8.64241337	     -0.00423131	      0.00403036	     -0.00078352	    -37.61892596	      5.69582283	    -35.51826517	      0.18196667	     21.46233286	     -2.57172950	     27.80427387	      4.04954171	      0.81983769	      0.00000000	     34.32000000
      1.60000000	     -0.80706605	     -2.11397538	     -8.53688304	     -0.00423131	      0.00403036	     -0.00078352	    -37.73268135	      6.10122613	    -35.49790943	      0.33192286	     22.02663682	     -2.85684184	     28.31264960	      3.58017220	      0.61719590	      0.00000000	     34.32000000
      1.61000000	     -0.76759647	     -2.21910828	     -8.51386443	     -0.00423131	      0.00403036	     -0.00078352	    -37.74677670	      6.38590605	    -35.34380242	      0.42992645	     22.48200246	     -3.04141528	     29.00445437	      3.34084923	      0.40194988	      0.00000000	     34.32000000
      1.62000000	     -0.86769499	     -2.21094546	     -8.42930148	     -0.00423131	      0.00403036	     -0.00078352	    -37.74888481	      6.61988114	    -35.38460880	      0.57395025	     22.58870854	     -3.11002059	     29.69608970	      3.25080321	      0.26551186	      0.00000000	     34.32000000
      1.63000000	     -0.95690879	     -2.21646476	     -8.48511752	     -0.00423131	      0.00403036	     -0.00078352	    -37.74829656	      6.65634459	    -35.39109769	      0.59701088	     22.60332605	     -3.11938086	     29.70919955	      3.23911903	      0.26177610	      0.00000000	     34.32000000
      1.64000000	     -0.95849701	     -2.21797580	     -8.47575082	     -0.00423131	      0.00403036	     -0.00078352	    -37.83297246	      6.85077115	    -35.38237176	      0.65136159	     22.93921865	     -3.28761356	     30.62145329	      2.92715791	      0.10336553	      0.00000000	     34.32000000
      1.65000000	     -0.93024947	     -2.28523498	     -8.45747768	     -0.00423131	      0.00403036	     -0.00078352	    -37.85726997	      6.99465403	    -35.33107146	      0.69991872	     23.16822186	     -3.38746913	     31.37171654	      2.84535207	     -0.02783280	      0.00000000	     34.32000000
      1.66000000	     -0.83244981	     -2.37048700	     -8.51883125	     -0.00423131	      0.00403036	     -0.00078352	    -37.85201251	      7.07745058	    -35.23843302	      0.71821838	     23.34995246	     -3.44950211	     32.01492736	      2.90510238	     -0.20131512	      0.00000000	     34.32000000
      1.67000000	     -0.91132561	     -2.34805335	     -8.57677075	     -0.00423131	      0.00403036	     -0.00078352	    -37.84883140	      7.11682622	    -35.24197434	      0.74349187	     23.36492330	     -3.45839141	     32.01885337	      2.92405927	     -0.20705921	      0.00000000	     34.32000000
      1.68000000	     -0.93536732	     -2.27172374	     -8.51543794	     -0.00423131	      0.00403036	     -0.00078352	    -37.86968794	      7.31318785	    -35.29951215	      0.85989755	     23.46546285	     -3.52588577	     32.71455080	      2.74248845	     -0.48146249	      0.00000000	     34.32000000
      1.69000000	     -1.01928373	     -2.21877739	     -8.55446887	     -0.00423131	      0.00403036	     -0.00078352	    -37.95006849	      7.36413388	    -35.37318010	      0.86478309	     23.57082975	     -3.60298516	     34.77226404	      2.42454220	     -0.78995980	      0.00000000	     34.32000000
      1.70000000	     -1.12967270	     -2.16960928	     -8.46914657	     -0.00423131	      0.00403036	     -0.00078352	    -37.96492485	      7.46312725	    -35.41292571	      0.92446505	     23.61519580	     -3.63759733	     34.82441996	      2.15498178	     -0.84079213	      0.00000000	     34.32000000
      1.71000000	     -1.10663022	     -2.13099030	     -8.44550821	     -0.00423131	      0.00403036	     -0.00078352	    -38.01546273	      7.61100676	    -35.45386782	      0.99028306	     23.77153443	     -3.72820933	     35.31515029	      2.00792735	     -0.99112497	      0.00000000	     34.32000000
      1.72000000	     -1.14382705	     -2.12744961	     -8.46661905	     -0.00423131	      0.00403036	     -0.00078352	    -38.01615623	      7.63425294	    -35.45890430	      1.00456397	     23.78188021	     -3.73512432	     35.32480732	      1.99206252	     -0.99978585	      0.00000000	     34.32000000
      1.73000000	     -1.22742528	     -2.08883715	     -8.48424146	     -0.00423131	      0.00403036	     -0.00078352	    -38.08613672	      7.59923700	    -35.59642873	      0.98896197	     23.71050172	     -3.74451812	     35.92557550	      1.94005499	     -1.16251366	      0.00000000	     34.32000000
